<svg xmlns="http://www.w3.org/2000/svg" xmlns:xlink="http://www.w3.org/1999/xlink" version="1.1" viewBox="592 0 816 816"><svg xml:space="preserve" width="2000" height="816" data-version="2" data-id="lg_WzamezbYws7IgbogLl" viewBox="0 0 816 816" x="0" y="0"><rect width="100%" height="100%" fill="transparent"/><path fill="#2c3e50" d="M85.517 433.994c24.999 0 48.547.05 72.495 23.998s23.949 47.547 23.999 72.495c0 25.299 0 51.497 25.998 77.495 26.048 26.048 52.247 26.048 77.545 26.048 24.998 0 48.447-.05 72.445 23.949 23.999 23.998 23.949 47.547 23.999 72.495 0 25.298-.05 51.447 25.998 77.495l399.973-399.974c-25.998-25.998-52.196-25.998-77.494-25.998-24.999 0-48.547-.05-72.496-23.998s-23.948-47.547-23.998-72.496c0-25.298 0-51.496-25.998-77.494-26.049-26.049-52.247-26.049-77.545-26.049-24.999 0-48.447.05-72.445-23.948-23.999-23.999-23.949-47.547-23.999-72.495 0-25.299.05-51.447-25.998-77.495L8.022 407.995c25.999 25.999 52.197 25.999 77.495 25.999"/><path fill="#ecf0f1" d="m348.813 201.654 116.543 116.547-32.315 32.315-73.255-73.258-18.612 18.61 62.677 62.68-30.943 30.942-62.677-62.679-20.57 20.57 74.626 74.629-32.315 32.314-117.915-117.92Z" paint-order="stroke"/><rect width="166.76" height="190.57" x="-83.38" y="-95.28" fill="none" rx="0" ry="0" transform="rotate(45 -226.57 575.25)"/><path fill="#ecf0f1" d="M556.828 404.967q29.966 29.967 32.42 62.388 2.445 32.414-25.373 60.231l-41.33-41.331q11.753-11.752 12.446-24.777.68-13.025-10.677-24.381-13.123-13.124-27.52-11.074-14.39 2.058-29.084 16.751l-12.537 12.537q-14.496 14.495-16.653 28.984-2.15 14.495 10.578 27.224 12.537 12.537 25.463 12.537t24.678-11.752l39.958 39.96q-27.62 27.619-59.25 25.363-31.635-2.25-62.584-33.2-34.471-34.472-34.57-69.828-.098-35.355 34.381-69.833 34.472-34.47 69.827-34.371 35.356.1 69.827 34.572" paint-order="stroke"/><rect width="190.58" height="197.23" x="-95.29" y="-98.61" fill="none" rx="0" ry="0" transform="rotate(45 -328.5 821.35)"/></svg></svg>