<?xml version="1.0" encoding="UTF-8" standalone="no"?>
<!-- Uploaded to: SVG Repo, www.svgrepo.com, Generator: SVG Repo Mixer Tools -->

<svg
   fill="#000000"
   height="800"
   width="800"
   version="1.1"
   id="Layer_1"
   viewBox="0 0 310 310"
   xml:space="preserve"
   xmlns="http://www.w3.org/2000/svg"
   xmlns:svg="http://www.w3.org/2000/svg"><defs
   id="defs1" />
<g
   id="XMLID_801_"
   style="display:inline;fill:#1f4e4e;fill-opacity:1">
	
	<path
   id="XMLID_803_"
   d="M 41.066,0.341 C 18.422,0.341 0,18.743 0,41.362 0,63.991 18.422,82.4 41.066,82.4 63.692,82.4 82.099,63.99 82.099,41.362 82.1,18.743 63.692,0.341 41.066,0.341 Z"
   style="display:inline;fill:#1f4e4e;fill-opacity:1" />
	<path
   id="XMLID_804_"
   d="m 230.454,94.761 c -24.995,0 -43.472,10.745 -54.679,22.954 V 104.73 c 0,-2.761 -2.238,-5 -5,-5 h -59.599 c -2.762,0 -5,2.239 -5,5 v 199.928 c 0,2.762 2.238,5 5,5 h 62.097 c 2.762,0 5,-2.238 5,-5 V 205.74 c 0,-33.333 9.054,-46.319 32.29,-46.319 25.306,0 27.317,20.818 27.317,48.034 v 97.204 c 0,2.762 2.238,5 5,5 H 305 c 2.762,0 5,-2.238 5,-5 V 194.995 C 310,145.43 300.549,94.761 230.454,94.761 Z"
   style="display:inline;fill:#1f4e4e;fill-opacity:1;stroke-width:1.00014;stroke-dasharray:none" />
</g>
<path
   style="display:inline;fill:#1f4e4e;fill-opacity:1;stroke-width:0.387984"
   d="m 8.3416772,309.06432 c -0.6401752,-0.28453 -1.6004381,-0.99013 -2.1339175,-1.568 L 5.2377972,306.44564 5.1364431,205.30981 C 5.06121,130.23908 5.1491763,103.89696 5.4777562,103.09915 c 0.243467,-0.59114 0.9571971,-1.50776 1.5860662,-2.03692 l 1.1433989,-0.96211 H 41.069846 c 36.109176,0 33.889274,-0.147196 35.171418,2.3322 0.51002,0.98627 0.579762,13.32426 0.579762,102.5687 V 306.4486 l -0.994902,1.18237 c -0.547193,0.65031 -1.6384,1.3611 -2.424905,1.57955 -0.922773,0.25629 -12.508485,0.39255 -32.662798,0.38414 -25.165047,-0.0105 -31.4589159,-0.11352 -32.3967438,-0.53034 z"
   id="path2" /></svg>
