<?xml version="1.0" encoding="UTF-8" standalone="no"?>
<!-- Uploaded to: SVG Repo, www.svgrepo.com, Generator: SVG Repo Mixer Tools -->

<svg
   width="800"
   height="800"
   viewBox="0 0 24 24"
   fill="none"
   version="1.1"
   id="svg1"
   xmlns="http://www.w3.org/2000/svg"
   xmlns:svg="http://www.w3.org/2000/svg">
  <defs
     id="defs1" />
  <path
     d="M 10,19 H 6.2 C 5.0799,19 4.51984,19 4.09202,18.782 3.71569,18.5903 3.40973,18.2843 3.21799,17.908 3,17.4802 3,16.9201 3,15.8 V 8.2 C 3,7.0799 3,6.51984 3.21799,6.09202 3.40973,5.71569 3.71569,5.40973 4.09202,5.21799 4.51984,5 5.0799,5 6.2,5 h 11.6 c 1.1201,0 1.6802,0 2.108,0.21799 0.3763,0.19174 0.6823,0.4977 0.874,0.87403 C 21,6.51984 21,7.0799 21,8.2 V 10 M 20.6067,8.26229 15.5499,11.6335 c -1.283,0.8553 -1.9245,1.283 -2.6179,1.4492 -0.6128,0.1468 -1.2516,0.1468 -1.8643,0 C 10.3743,12.9165 9.73279,12.4888 8.44975,11.6335 L 3.14746,8.09863 M 14,21 16.025,20.595 c 0.1765,-0.0353 0.2648,-0.053 0.3471,-0.0853 0.0731,-0.0286 0.1426,-0.0658 0.2069,-0.1107 0.0726,-0.0506 0.1362,-0.1142 0.2636,-0.2416 L 21,16 c 0.5523,-0.5523 0.5523,-1.4477 0,-2 -0.5523,-0.5523 -1.4477,-0.5523 -2,0 l -4.1574,4.1574 c -0.1274,0.1274 -0.191,0.191 -0.2416,0.2636 -0.0449,0.0643 -0.0821,0.1338 -0.1107,0.2069 -0.0323,0.0823 -0.05,0.1706 -0.0853,0.3471 z"
     stroke="#000000"
     stroke-width="2"
     stroke-linecap="round"
     stroke-linejoin="round"
     id="path1"
     style="stroke:#1f4e4e;stroke-opacity:1" />
</svg>
